PathFileType	4	(X/Y/Z)	Patient4_TMGait_0pt3_02_left_04.trc.trc
DataRate	CameraRate	NumFrames	NumMarkers	Units	OrigDataRate	OrigDataStartFrame	OrigNumFrames
48.780487804878	48.780487804878	7	33	mm	48.780487804878	36	       141
Frame#	Time	Sacral			L.Shoulder			Chest			R.Shoulder			Neck			R.ASIS			L.ASIS			R.Thigh.Superior			R.Thigh.Lateral			R.Thigh.Inferior			R.Patella			L.Thigh.Superior			L.Thigh.Lateral			L.Thigh.Inferior			L.Patella			L.Shank.Superior			L.Shank.Lateral			L.Shank.Inferior			R.Shank.Superior			R.Shank.Lateral			R.Shank.Inferior			R.Heel			R.Midfoot.Superior			R.Midfoot.Lateral			R.Toe			L.Heel			L.Midfoot.Lateral			L.Midfoot.Superior			L.Toe			L.Elbow			L.Wrist			R.Elbow			R.Wrist			
		X1	Y1	Z1	X2	Y2	Z2	X3	Y3	Z3	X4	Y4	Z4	X5	Y5	Z5	X6	Y6	Z6	X7	Y7	Z7	X8	Y8	Z8	X9	Y9	Z9	X10	Y10	Z10	X11	Y11	Z11	X12	Y12	Z12	X13	Y13	Z13	X14	Y14	Z14	X15	Y15	Z15	X16	Y16	Z16	X17	Y17	Z17	X18	Y18	Z18	X19	Y19	Z19	X20	Y20	Z20	X21	Y21	Z21	X22	Y22	Z22	X23	Y23	Z23	X24	Y24	Z24	X25	Y25	Z25	X26	Y26	Z26	X27	Y27	Z27	X28	Y28	Z28	X29	Y29	Z29	X30	Y30	Z30	X31	Y31	Z31	X32	Y32	Z32	X33	Y33	Z33	

36	7.937500000000	726.146131883808	1009.363313474557	528.614682933545	885.263747880187	1409.424161320585	295.114418283300	1015.368372777212	1346.692631705060	438.979624806029	968.820230914825	1440.380852265583	615.480816898188	897.143391568639	1482.605532969750	446.158104356376	962.050514144246	927.083142617021	616.422287076629	917.754999930261	950.520023298896	346.645414367024	943.236862936456	710.573279703564	593.499343452873	835.263894701076	621.964683583580	658.481972942356	891.004820799286	551.962065356968	578.083418801150	863.136812448434	461.524817481688	586.948961996687	994.042439874152	764.195704351119	391.205018880405	933.545168062657	635.472668598425	320.817708065544	1028.260772059516	572.431205424445	388.137421928519	1040.720372673446	500.511023664434	393.113227668953	1019.071473091892	426.434589958214	381.391660618202	942.240603646694	308.220928261687	320.349294095609	996.358622393418	197.041474598190	388.772452214603	802.532921380643	388.090319403880	595.936302537225	698.402716350444	317.897315201143	660.133481279986	704.500749885490	212.915844155753	600.195716044206	523.013420049768	86.132269445433	569.743821392766	701.050556817857	104.393123501554	612.240305032782	600.829915169566	58.589215836291	644.523694626211	804.680282497935	36.270031865319	639.429623826909	871.959674602023	39.463020857375	413.248647835450	952.968159294143	37.069895853174	339.939924040344	1034.861768501594	96.511456901049	374.803791209406	1164.072675925206	41.887159947779	356.693499716918	765.065943021415	1071.375743084211	224.413832861551	759.752177572508	811.269600514101	254.258361858880	1173.918013642074	1187.952682919164	734.422124518658	1404.917803772948	1262.546440022326	652.684010209952	
37	7.958000000000	728.132847065376	1010.155774617455	522.303691154404	888.668283986843	1410.479543424947	290.100380125815	1017.640596040344	1347.892968406560	435.060813164268	969.382169578507	1441.557273170695	611.098864462942	898.853714592384	1483.637834417900	441.469381185676	963.346101359185	928.318390935488	612.173784634359	921.281931313201	951.101158166846	342.089755114315	944.613903388747	711.717772344449	590.588601042268	836.329326402771	623.467255157569	655.611837629355	892.956373089892	552.770244569618	576.306605397074	864.929794958287	461.630004817023	586.105511945255	996.560199971407	764.105300278635	387.411157478094	935.395510008302	635.278025232472	317.747632089943	1029.708006257065	571.906741056307	385.412842678804	1041.783243644976	499.623847556101	390.947348476610	1018.900687578120	425.482279555696	379.758692969590	940.518019689582	308.084352545000	319.248921503106	992.569414096219	196.523066147825	388.375677443060	802.861485549805	389.181608047767	595.086647654749	697.221340417332	321.062959336825	658.956526907706	702.445429315861	215.334226520373	600.144535726222	519.000547655139	91.728248370115	569.991687935772	697.449497991325	105.340177858307	612.770219763173	596.086896563902	61.819261569276	644.668835025720	798.853850270803	36.198724842817	639.372093155736	866.155469031875	39.528275495190	413.239628358682	947.162166516251	37.207898987491	339.995298096980	1029.050030160426	96.598048965631	374.896437089451	1158.292207781869	41.738395263810	356.686693591513	771.093791162133	1072.063712344894	216.052110140572	769.349695914101	811.741748962964	244.512185104859	1173.349023379288	1187.521283071996	730.384526905689	1409.600879650875	1252.925749104510	653.878959920584	
38	7.978500000000	729.947271655071	1010.827892291023	516.065068330488	891.997385120206	1411.515615419684	285.190845155766	1019.717943543249	1349.105117505858	431.337225397360	969.643276979869	1442.755432931431	606.879625682088	900.433160212870	1484.679812992315	436.862255810685	964.503109624943	929.536124403930	607.997508628801	924.610511621446	951.695935173920	337.568712113980	946.333169818441	712.937797482012	587.531362145389	838.038450042290	624.765571103184	652.606386077775	895.647281345139	553.537801657893	574.319815930638	867.581944319693	461.533664724495	585.104084711461	998.661554678917	763.739431769781	383.240102135169	936.438563297481	634.946177413388	314.559706237862	1030.345832800513	571.177963265187	382.447805135384	1041.959060929148	498.661168817838	388.536450941773	1017.949644937273	424.504019459639	377.911857900227	938.108422664418	307.811810395706	318.084318473749	988.444545241552	196.041242842075	387.850870585220	803.936132336085	390.122414302006	594.074392681225	696.755011992125	324.204841181735	657.591905708012	700.917680957152	217.749269404994	599.929351301014	515.360223225718	97.714359491603	570.121668606362	694.113497994594	106.286342433144	613.184676713489	591.575188583750	65.380588423451	644.739579936741	793.073312594599	36.135026507099	639.313237015220	860.307153884638	39.585754878601	413.248957818869	941.298617906973	37.304257976119	340.042096817544	1023.174972500673	96.671025253406	374.922124291085	1152.444510746057	41.622727349237	356.642273917850	777.329732665567	1072.706575560148	207.612156154639	779.090300183172	812.233471925407	234.657595913802	1171.721934619679	1186.362038212963	726.780110088485	1413.166924177469	1241.314714560462	656.140783914644	
39	7.999000000000	731.589389584548	1011.395319516617	509.939543487563	895.170388722685	1412.548732911896	280.410844554694	1021.555232649615	1350.348570492148	427.796843160970	969.603628748345	1443.984572155569	602.829187514398	901.839900718184	1485.742442598310	432.347922419965	965.533418742906	930.742370809950	603.886923582933	927.715771689596	952.335905640411	333.088445775812	948.398752299811	714.222860107814	584.326602122956	840.398368515548	625.852505737049	649.469247252008	899.064722408796	554.261369676982	572.102134906762	871.075063890305	461.256512701547	583.921001408203	1000.375226782041	763.162222293760	378.788939629130	936.782719257316	634.531786959996	311.302468180274	1030.245617930160	570.301698977168	379.340604543802	1041.314120347598	497.660407548073	385.978356433285	1016.295006581389	423.531641808326	375.922413004613	935.105497352979	307.445483790626	316.859527828265	984.006297632632	195.596294719354	387.242752760047	805.765472983039	390.915365235142	592.887713390537	697.024230698220	327.331313657302	656.046505680699	699.933294937832	220.175076353070	599.551437133318	512.148202784783	104.143003173776	570.109420290170	691.050828547185	107.255860680039	613.485808014137	587.316959944310	69.322069029007	644.720814348639	787.327619742619	36.052202153161	639.265916741391	854.390578634345	39.643262172058	413.271327104338	935.356916847151	37.364045136143	340.080108527360	1017.232970777548	96.711358541645	374.896015720898	1146.517736913430	41.495222971084	356.569430697987	783.825292649728	1073.259545224828	199.198149660770	789.066706567334	812.703286482917	224.782837076960	1168.907469546744	1184.441723376401	723.686178355892	1415.216548787529	1227.643318229249	659.441225962282	
40	8.019500000000	733.065335678678	1011.875953245035	503.951958379902	898.119470500621	1413.602035223881	275.786278743493	1023.117808725219	1351.642772974159	424.429703562314	969.265952696097	1445.242796737999	598.958204671447	903.034656285345	1486.834830646200	427.947796788687	966.448386413821	931.942958147832	599.829986766902	930.589849057427	953.042356767813	328.652408484016	950.795637938611	715.560133588930	580.983293917386	843.381885897010	626.735501190341	646.210910558686	903.161427466848	554.942943238373	569.646864786958	875.356841577469	460.832368098833	582.546981302374	1001.741104906466	762.436896344108	374.168285917158	936.558205763854	634.083044875842	308.022018858377	1029.506117757613	569.331239535195	376.188048678371	1039.952668398447	496.653071702383	383.367965935950	1014.040449154157	422.590943566789	373.861498455068	931.622818024743	307.025120610571	315.585205781030	979.292508250415	195.188505874731	386.593750115389	808.329552399544	391.575511601955	591.525434663743	698.021368533018	330.464687326882	654.333024697668	699.490503750676	222.639526258682	599.018503624119	509.423420814438	111.072359698751	569.923071176443	688.259478837318	108.288483419678	613.679878788319	583.330670881850	73.698817168747	644.589700447084	781.593469173176	35.918582066002	639.243562465006	848.397962850979	39.705091686915	413.300337009782	929.333715767762	37.395730132965	340.110230032930	1011.227916633819	96.714767297369	374.833616053717	1140.512881101010	41.337588434478	356.478823825999	790.617327612693	1073.702125397940	190.913811564975	799.358670772979	813.132891870028	214.975477273881	1164.806296893866	1181.757663963419	721.150001761152	1415.375292052250	1211.871312470179	663.723419127901	
41	8.040000000000	734.382343392442	1012.282370635079	498.112211877204	900.795358210159	1414.695811155551	271.343229498976	1024.384073358551	1352.997020976580	421.230345898654	968.635845767236	1446.509564233359	595.282140622675	903.985095821031	1487.956415295796	423.693174846067	967.254145648709	933.136688981680	595.810753150814	933.236759806182	953.819735038485	324.262119877469	953.495211544243	716.932146102694	577.515106602474	846.941080969035	627.428560893943	642.847180915590	907.872651852361	555.585290949197	566.959047130072	880.360865072494	460.296488608862	580.987010995010	1002.806386764389	761.618677673621	369.490238537535	935.905615560739	633.633618681340	304.758261877583	1028.247513551152	568.310143409968	373.075143573888	1038.008926593964	495.659176195712	380.786781771437	1011.309288377619	421.695370317639	371.792555889089	927.782997395752	306.581999173985	314.276171134764	974.352561634900	194.814379861238	385.938445946057	811.592431563748	392.123117950780	589.995049586893	699.721024878273	333.637215224405	652.464801875013	699.575682808676	225.180817932397	598.339356732337	507.248034656508	118.563439149044	569.518380860928	685.729087339565	109.439750899851	613.771207800618	579.632898883477	78.572598990296	644.311273439602	775.836733982097	35.700159926548	639.258134793202	842.333171264741	39.771870668103	413.329276967138	923.237403353719	37.408050717078	340.133396526354	1005.168056401783	96.686457880385	374.748775730391	1134.439624640657	41.150161080931	356.381040286070	797.735949614942	1074.029289407620	182.856246298208	810.031534665563	813.518857612231	205.322769253789	1159.353132182238	1178.330420909382	719.180627747659	1413.300148892779	1193.995308896966	668.901833055697	
42	8.060500000000	735.542810411261	1012.615274805629	492.417190880739	903.170666590183	1415.838866662528	267.107605488674	1025.346296754347	1354.401570251647	418.199625293384	967.722168333497	1447.740569745177	591.820784862374	904.669972158488	1489.090533583231	419.624168503432	967.947386932301	934.309850438563	591.811625417116	935.665822541950	954.651625519195	319.918647424936	956.462932843470	718.315707898805	573.936369954257	851.023567692202	627.944359047996	639.398266975534	913.136024316701	556.188175971787	564.053396917123	886.027675341264	459.675725109813	579.258202904738	1003.622821579672	760.749870692483	364.857665555119	934.967644106588	633.197221826337	301.543186903153	1026.607085798061	567.268460313721	370.068485000049	1035.640597914612	494.684194711962	378.296836300754	1008.239203958063	420.842177215740	369.767318105802	923.711271811171	306.135356484758	312.948916073765	969.244086579978	194.464099149147	385.301001060564	815.517387345636	392.577041538233	588.309826227656	702.093154351262	336.886170338245	650.450143718417	700.172060093923	227.842950705944	597.518542270872	505.688397826763	126.676115099464	568.834987892083	683.446562557055	110.779123223158	613.755366481427	576.242692625714	84.011043230021	643.835437529922	770.017950026689	35.364756733101	639.317726944746	836.207022377772	39.841166278272	413.351604111666	917.082851816160	37.407946765144	340.149754095395	999.063326167861	96.636096185477	374.652499313862	1128.312201647153	40.944021040378	356.285304575795	805.212488711529	1074.242456067388	175.111281809655	821.139381018910	813.863936411966	195.911600559069	1152.517135311813	1174.194149846092	717.745559297476	1408.683580587885	1174.055220042492	674.864096958449	
